General                          : ChattChitto RG - Movies [R2L]
==========
Complete name                    : Love and Other Drugs 2010 720p BRRip H264 [ChattChitto RG]
Format                           : MPEG-4
Format profile                   : Base Media
Codec ID                         : isom
File size                        : 2.06 GiB
Duration                         : 1h 52mn
Overall bit rate                 : 2 620 Kbps
Encoded date                     : UTC 2011-01-25 15:38:10

Video
==========
ID                               : 1
Format                           : AVC
Format/Info                      : Advanced Video Codec
Format profile                   : High@L4.0
Format settings, CABAC           : Yes
Format settings, ReFrames        : 4 frames
Codec ID                         : avc1
Codec ID/Info                    : Advanced Video Coding
Duration                         : 1h 52mn
Bit rate mode                    : Variable
Bit rate                         : 2 300 Kbps
Maximum bit rate                 : 19.2 Mbps
Width                            : 1 280 pixels
Height                           : 688 pixels
Display aspect ratio             : 1.860
Frame rate mode                  : Constant
Frame rate                       : 23.976 fps
Resolution                       : 24 bits
Colorimetry                      : 4:2:0
Scan type                        : Progressive
Bits/(Pixel*Frame)               : 0.109
Stream size                      : 1.80 GiB (88%)
Writing library                  : x264 core 84 r1400M 20fa784
Encoded date                     : UTC 2011-01-25 10:31:40

Audio
==========
ID                               : 2
Format                           : AAC
Format/Info                      : Advanced Audio Codec
Format version                   : Version 4
Format profile                   : LC
Format settings, SBR             : No
Codec ID                         : 40
Duration                         : 1h 52mn
Bit rate mode                    : Variable
Bit rate                         : 317 Kbps
Maximum bit rate                 : 437 Kbps
Channel(s)                       : 6 channels
Channel positions                : Front: L C R, Rear: L R, LFE
Sampling rate                    : 48.0 KHz
Resolution                       : 16 bits
Stream size                      : 255 MiB (12%)
Encoded date                     : UTC 2011-01-25 15:39:18

Subtitles                        : Dutch


----------------------------------------------------
IMDB Link: http://www.imdb.com/title/tt0758752/
----------------------------------------------------



Screen Shots:
==============    
http://bayimg.com/faDHjaadi 
http://bayimg.com/fAdHKAADi 
http://bayimg.com/FADhLAAdI 
http://bayimg.com/fAdHmaaDi 
http://bayimg.com/FADHNaAdI



ScreenShots Comparison:
=========================  
http://screenshotcomparison.com/comparison/22854



Plot:
======
Maggie (Hathaway) is an alluring free spirit who won't let anyone - or anything - tie her down. But she meets her match in Jamie (Gyllenhaal), whose relentless and nearly infallible charm serve him well with the ladies and in the cutthroat world of pharmaceutical sales. Maggie and Jamie's evolving relationship takes them both by surprise, as they find themselves under the influence of the ultimate drug: love.



Release Info:
==============
original name .... : Love and Other Drugs 2010 720p BRRip H264 [ChattChitto RG]
ripper.............: OEM1080
encoder............: Recalled2Life (R2L)
video codec........: H264/.MP4                   
video bitrate......: 2300 Kbps
audio codec........: AAC-LC
aspect ratio.......: 1.860
resolution.........: 1280 x 688
genre..............: Comedy | Drama         
runtime............: 1h 52mn
language...........: English
rating.............: R
subtitles..........: Dutch
sample.............: Yes [17.6 MB]
2ch Audio..........: 2ch Audio for XBox Viewers  
Compatibility .....: XBox | PS3 | WD Live



Source:
========
Love.And.Other.Drugs.1080p.BluRay.x264-OEM1080  THANKS!



Notes:
=======
ChattChitto RG Encourages Burning this Film with ConvertXtoDVD and Playing with VLC media player.
XBox 360 | PS3 | WD Live - Compatible 
Enhanced for your viewing pleasure ;) 